<svg xmlns="http://www.w3.org/2000/svg" width="128.681" height="67.771">
  <path fill="#221F1F" d="M.046 34.814h2.337v11.973h-2.337zm14.964 11.973l-4.742-7.35v7.35h-2.336v-11.974h2.085l4.74 7.333v-7.333h2.336v11.974zm12.207-9.889v9.89h-2.337v-9.89h-3.125v-2.085h8.59v2.085zm7.786 9.889v-11.974h7.884v2.085h-5.547v2.81h4.724v2.083h-4.724v2.91h5.547v2.087zm19.283 0l-2.336-4.777h-1.68v4.777h-2.336v-11.974h4.688c2.438 0 3.884 1.667 3.884 3.665 0 1.684-1.026 2.724-2.186 3.147l2.67 5.16h-2.704zm-1.815-9.89h-2.2v3.163h2.2c1.027 0 1.698-.656 1.698-1.582 0-.92-.67-1.58-1.697-1.58"/>
  <path fill="#221F1F" d="M70.19 46.787v-6.98l-2.284 4.542h-1.58l-2.304-4.542v6.98h-2.335v-11.975h2.303l3.127 6.476 3.11-6.477h2.3v11.974zm7.89 0v-11.974h7.883v2.085h-5.546v2.81h4.723v2.083h-4.723v2.91h5.546v2.087zm20.41-1.145c-.79.794-1.916 1.146-3.16 1.146h-4.32v-11.975h4.32c1.243 0 2.37.353 3.16 1.144 1.343 1.348 1.208 2.992 1.208 4.792 0 1.798.135 3.547-1.208 4.892m-1.63-8.003c-.403-.485-.94-.74-1.75-.74h-1.76v7.802h1.76c.81 0 1.347-.252 1.75-.742.436-.535.505-1.394.505-3.21s-.07-2.573-.506-3.11"/>
  <path fill="#221F1F" d="M104.85 34.814h2.333v11.973h-2.334zm14.69 11.973l-.706-2.12h-4.252l-.723 2.12h-2.44l4.356-11.975h1.83l4.373 11.975h-2.44zm-2.79-8.44l-1.512 4.353h2.975l-1.463-4.354z"/>
  <path fill-rule="evenodd" clip-rule="evenodd" fill="#F79420" d="M48.148 0h8.9v22.974h-8.9z"/>
  <path fill-rule="evenodd" clip-rule="evenodd" fill="#098BCB" d="M.075 0h8.898v22.974h-8.898z"/>
  <path fill-rule="evenodd" clip-rule="evenodd" fill="#95BB3D" d="M16.1 0h8.896v22.974h-8.896z"/>
  <path fill-rule="evenodd" clip-rule="evenodd" fill="#EB2027" d="M32.124 0h8.897v22.974h-8.896z"/>
</svg>
